<svg width="166" height="184" viewBox="0 0 166 184" fill="none" xmlns="http://www.w3.org/2000/svg">
<path d="M134.2 64.2265L124.532 41.6531L105.342 49.8723L87.5974 8.44183L68.2071 16.7466L85.9516 58.1771L75.0106 62.8631L46.648 25.9803L19.3467 37.6734L37.0913 79.1039L17.9009 87.323L27.569 109.896L46.7594 101.677L57.0266 125.649L37.8362 133.869L47.5043 156.442L66.6947 148.223L78.4027 175.559L97.793 167.254L86.085 139.918L105.501 131.602L124.3 155.901L146.653 146.327L134.945 118.991L154.136 110.772L144.468 88.1986L125.277 96.4178L115.01 72.4457L134.2 64.2265ZM54.6822 66.5978L55.077 66.4287L57.9685 70.1622L56.4816 70.799L54.6822 66.5978ZM76.4169 117.344L66.1497 93.3724L73.4916 90.2279L89.9778 111.536L76.4169 117.344ZM103.561 99.2787L103.167 99.4478L90.4774 82.953L95.6249 80.7483L103.561 99.2787Z" fill="black"/>
</svg>
