<svg width="160" height="160" viewBox="0 0 160 160" fill="none" xmlns="http://www.w3.org/2000/svg">
<path d="M51.9312 75.8013V83.1258H63.5547L56.6443 74.1932C55.1104 72.2081 51.9312 73.2909 51.9312 75.8013Z" fill="white"/>
<path d="M73.517 82.2659C73.8461 82.6905 74.2494 82.9665 74.6793 83.1257H76.4998C77.4605 82.7754 78.2301 81.889 78.2301 80.6577V71.9692H65.5557L73.517 82.2659Z" fill="white"/>
<path d="M80.3797 0.726074C36.4279 0.726074 0.79834 36.3556 0.79834 80.3074C0.79834 124.259 36.4279 159.889 80.3797 159.889C124.331 159.889 159.961 124.259 159.961 80.3074C159.961 36.3556 124.331 0.726074 80.3797 0.726074ZM95.7822 69.3367C95.7822 70.791 94.6039 71.9693 93.1496 71.9693H86.9929V83.1257H92.6667C94.1209 83.1257 95.2992 84.304 95.2992 85.7583V88.1785C95.2992 89.6328 94.1209 90.811 92.6667 90.811H86.9929V101.251C86.9929 102.705 85.8146 103.884 84.3603 103.884H80.8945C80.0825 103.884 79.3129 103.507 78.8139 102.864L69.4939 90.8164H51.9259V101.256C51.9259 102.711 50.7477 103.889 49.2934 103.889H45.7904C44.3361 103.889 43.1579 102.711 43.1579 101.256V90.811H38.8428C37.3886 90.811 36.2103 89.6328 36.2103 88.1785V85.7583C36.2103 84.304 37.3886 83.1257 38.8428 83.1257H43.1579V71.9693H39.3205C37.8662 71.9693 36.688 70.791 36.688 69.3367V66.9165C36.688 65.4622 37.8662 64.2839 39.3205 64.2839H43.1579V56.2218C43.1579 54.7675 44.3361 53.5892 45.7904 53.5892H50.0418C50.8538 53.5892 51.6234 53.9661 52.1223 54.6136L59.6007 64.2892H78.2301V56.2271C78.2301 54.7728 79.4084 53.5945 80.8627 53.5945H84.3657C85.8199 53.5945 86.9982 54.7728 86.9982 56.2271V64.2892H93.1549C94.6092 64.2892 95.7875 65.4675 95.7875 66.9218V69.3367H95.7822ZM126.757 91.4692L117.055 101.171C116.715 101.511 116.158 101.511 115.818 101.171L106.116 91.4692C105.564 90.9172 105.957 89.9725 106.737 89.9725H114.008V56.5508C114.008 56.0679 114.401 55.6751 114.884 55.6751H117.994C118.477 55.6751 118.87 56.0679 118.87 56.5508V89.9725H126.141C126.922 89.9725 127.309 90.9172 126.757 91.4692Z" fill="white"/>
</svg>
