<svg width="113" height="152" viewBox="0 0 113 152" fill="none" xmlns="http://www.w3.org/2000/svg">
<path d="M112.955 93.4381L108.025 19.0375C107.314 8.32227 98.4265 0 87.7015 0H26.7191C16.1641 0 7.35669 8.07234 6.4324 18.6015L0.0791833 90.7686C-0.457334 96.8414 1.75248 102.84 6.10305 107.11L45.8478 146.164C54.1718 154.342 67.6485 153.864 75.3722 145.116L107.893 108.296C111.494 104.217 113.316 98.8675 112.955 93.4381ZM94.5009 45.4029L41.1626 88.4979C40.3605 89.1467 39.3671 89.487 38.3631 89.487C37.9488 89.487 37.5345 89.4285 37.1254 89.3115C35.7284 88.9074 34.6128 87.8491 34.1454 86.4665L23.1388 54.2888C22.342 51.9544 23.585 49.4178 25.9117 48.6201C28.2437 47.8225 30.7775 49.0668 31.5743 51.396L40.5198 77.5433L88.902 38.4526C90.8196 36.9051 93.6244 37.2029 95.1702 39.1226C96.716 41.0423 96.4185 43.8501 94.5009 45.4029Z" fill="white"/>
</svg>
