<svg width="142" height="157" viewBox="0 0 142 157" fill="none" xmlns="http://www.w3.org/2000/svg">
<path d="M59.0906 89.6946C59.2604 89.8644 59.5364 89.8644 59.7063 89.6946L60.0088 89.3921C60.1786 89.2222 60.1786 88.9462 60.0088 88.7764L55.9167 84.6843C55.7468 84.5144 55.4708 84.5144 55.301 84.6843L54.9985 84.9868C54.8286 85.1566 54.8286 85.4326 54.9985 85.6025L59.0906 89.6946Z" fill="white"/>
<path d="M119.416 0.0820312H22.1185C10.1022 0.0820312 0.368164 9.82138 0.368164 21.8324V135.239C0.368164 147.255 10.1075 156.989 22.1185 156.989H119.416C131.433 156.989 141.167 147.25 141.167 135.239V21.8324C141.167 9.82138 131.427 0.0820312 119.416 0.0820312ZM44.7233 33.5673C44.7233 25.1177 51.5966 18.2498 60.0409 18.2498H81.494C89.9436 18.2498 96.8116 25.123 96.8116 33.5673V70.8528C94.2587 68.1566 91.3236 65.8478 88.0913 64.0273V33.5673C88.0913 29.9264 85.1297 26.9648 81.4887 26.9648H60.0356C56.3946 26.9648 53.433 29.9264 53.433 33.5673V63.6399C50.2219 65.3595 47.2869 67.5569 44.7127 70.131V33.5673H44.7233ZM70.7674 138.832C50.3865 138.832 33.8641 121.773 33.8641 100.734C33.8641 79.6952 50.3865 62.6368 70.7674 62.6368C91.1484 62.6368 107.671 79.6952 107.671 100.734C107.671 121.773 91.1484 138.832 70.7674 138.832Z" fill="white"/>
<path d="M59.5153 111.588C59.3455 111.418 59.0695 111.418 58.8997 111.588L54.8076 115.68C54.6377 115.85 54.6377 116.126 54.8076 116.296L55.1101 116.599C55.2799 116.768 55.5559 116.768 55.7258 116.599L59.8179 112.507C59.9877 112.337 59.9877 112.061 59.8179 111.891L59.5153 111.588Z" fill="white"/>
<path d="M70.486 85.1088H70.9159C71.1548 85.1088 71.3511 84.9124 71.3511 84.6736V78.8883C71.3511 78.6495 71.1548 78.4531 70.9159 78.4531H70.486C70.2472 78.4531 70.0508 78.6495 70.0508 78.8883V84.6736C70.0508 84.9124 70.2472 85.1088 70.486 85.1088Z" fill="white"/>
<path d="M81.9187 89.79C82.0885 89.9599 82.3645 89.9599 82.5343 89.79L86.6265 85.6979C86.7963 85.5281 86.7963 85.2521 86.6265 85.0823L86.3239 84.7797C86.1541 84.6099 85.8781 84.6099 85.7083 84.7797L81.6162 88.8718C81.4463 89.0417 81.4463 89.3177 81.6162 89.4875L81.9187 89.79Z" fill="white"/>
<path d="M70.911 116.365H70.4811C70.2423 116.365 70.0459 116.562 70.0459 116.8V122.586C70.0459 122.825 70.2423 123.021 70.4811 123.021H70.911C71.1499 123.021 71.3463 122.825 71.3463 122.586V116.8C71.3516 116.556 71.1552 116.365 70.911 116.365Z" fill="white"/>
<path d="M55.1366 100.745V100.315C55.1366 100.076 54.9402 99.8799 54.7014 99.8799H48.9162C48.6773 99.8799 48.481 100.076 48.481 100.315V100.745C48.481 100.984 48.6773 101.18 48.9162 101.18H54.7014C54.9455 101.18 55.1366 100.989 55.1366 100.745Z" fill="white"/>
<path d="M82.7307 111.493C82.5608 111.323 82.2848 111.323 82.115 111.493L81.8124 111.795C81.6426 111.965 81.6426 112.241 81.8124 112.411L85.9046 116.503C86.0744 116.673 86.3504 116.673 86.5202 116.503L86.8228 116.2C86.9926 116.031 86.9926 115.755 86.8228 115.585L82.7307 111.493Z" fill="white"/>
<path d="M92.6135 99.8853H86.8283C86.5894 99.8853 86.3931 100.082 86.3931 100.32V100.75C86.3931 100.989 86.5894 101.186 86.8283 101.186H92.6135C92.8524 101.186 93.0487 100.989 93.0487 100.75V100.32C93.054 100.076 92.8577 99.8853 92.6135 99.8853Z" fill="white"/>
<path d="M70.7672 87.5398C63.4906 87.5398 57.5674 93.463 57.5674 100.74C57.5674 108.016 63.4853 113.94 70.7672 113.94C78.0492 113.94 83.9671 108.016 83.9671 100.74C83.9671 93.463 78.0439 87.5398 70.7672 87.5398ZM70.7672 111.997C64.5574 111.997 59.5046 106.944 59.5046 100.734C59.5046 94.5245 64.5574 89.4717 70.7672 89.4717C76.9771 89.4717 82.0299 94.5245 82.0299 100.734C82.0299 106.944 76.9771 111.997 70.7672 111.997Z" fill="white"/>
</svg>
